<svg width="20" height="22" viewBox="0 0 20 22" fill="none" xmlns="http://www.w3.org/2000/svg">
<path d="M14.3268 7.55447C13.9074 7.55447 13.5595 7.20663 13.5595 6.78718V5.37536C13.5595 4.30116 13.0991 3.25763 12.3012 2.53126C11.4929 1.79465 10.4494 1.45704 9.34451 1.55935C7.50301 1.73327 5.88658 3.6157 5.88658 5.57997V6.57233C5.88658 6.99179 5.53874 7.33963 5.11928 7.33963C4.69983 7.33963 4.35199 6.99179 4.35199 6.57233V5.56974C4.35199 2.81771 6.57203 0.280528 9.20129 0.0247633C10.7359 -0.118465 12.2091 0.362372 13.3344 1.39566C14.4496 2.40849 15.0941 3.86123 15.0941 5.37536V6.78718C15.0941 7.20663 14.7463 7.55447 14.3268 7.55447Z" fill="white"/>
<path d="M12.792 22H6.65372C1.92719 22 1.04736 19.8004 0.822287 17.6622L0.0549938 11.5341C-0.0575426 10.4292 -0.0984648 8.84345 0.975746 7.6567C1.8965 6.63365 3.42086 6.14258 5.63066 6.14258H13.8151C16.0351 6.14258 17.5595 6.64388 18.47 7.6567C19.534 8.84345 19.5033 10.4292 19.3908 11.5136L18.6235 17.6622C18.3984 19.8004 17.5186 22 12.792 22ZM5.63066 7.67717C3.90169 7.67717 2.71495 8.01477 2.11134 8.68999C1.61004 9.24244 1.44635 10.0916 1.57935 11.3602L2.34664 17.4883C2.52056 19.1252 2.97071 20.4756 6.65372 20.4756H12.792C16.4751 20.4756 16.9252 19.1354 17.0991 17.5088L17.8664 11.3602C17.9994 10.112 17.8357 9.26291 17.3344 8.70022C16.7308 8.01477 15.5441 7.67717 13.8151 7.67717H5.63066Z" fill="white"/>
<path d="M13.2221 12.1784C12.6492 12.1784 12.1888 11.7181 12.1888 11.1554C12.1888 10.5927 12.6492 10.1323 13.2119 10.1323C13.7746 10.1323 14.235 10.5927 14.235 11.1554C14.235 11.7181 13.7848 12.1784 13.2221 12.1784Z" fill="white"/>
<path d="M6.06066 12.1784C5.48775 12.1784 5.02737 11.7181 5.02737 11.1554C5.02737 10.5927 5.48775 10.1323 6.05043 10.1323C6.61311 10.1323 7.07349 10.5927 7.07349 11.1554C7.07349 11.7181 6.62335 12.1784 6.06066 12.1784Z" fill="white"/>
</svg>
